<?xml version="1.0" standalone="no"?>
<!DOCTYPE svg PUBLIC "-//W3C//DTD SVG 20010904//EN"
 "http://www.w3.org/TR/2001/REC-SVG-20010904/DTD/svg10.dtd">
<svg version="1.0" xmlns="http://www.w3.org/2000/svg"
 width="486.000000pt" height="486.000000pt" viewBox="0 0 486.000000 486.000000"
 preserveAspectRatio="xMidYMid meet">
<metadata>
Created by potrace 1.14, written by Peter Selinger 2001-2017
</metadata>
<g transform="translate(0.000000,486.000000) scale(0.100000,-0.100000)"
fill="#000000" stroke="none">
<path d="M2249 4855 c-2 -2 -33 -6 -69 -9 -264 -23 -553 -106 -815 -235 -266
-131 -445 -259 -656 -470 -137 -138 -221 -242 -323 -399 -67 -103 -196 -350
-196 -375 0 -7 -4 -17 -9 -22 -15 -16 -88 -242 -115 -355 -24 -105 -41 -201
-54 -315 -9 -76 -8 -434 1 -500 3 -27 9 -75 13 -105 3 -30 8 -58 10 -61 2 -4
6 -24 10 -45 12 -84 78 -309 125 -434 37 -96 169 -345 239 -448 136 -203 326
-411 495 -542 39 -30 72 -57 75 -61 3 -4 50 -36 105 -72 291 -190 587 -308
930 -371 18 -3 85 -13 155 -23 14 -2 115 -5 225 -7 282 -6 500 25 760 105 305
95 595 254 845 464 67 56 276 270 327 335 89 114 198 283 261 406 125 246 195
461 247 759 31 180 26 594 -10 765 -3 14 -8 41 -11 60 -37 231 -169 566 -319
810 -60 97 -179 258 -235 320 -132 144 -230 236 -355 330 -337 255 -721 416
-1135 476 -25 3 -56 8 -70 10 -31 6 -447 14 -451 9z"/>
</g>
</svg>
