<svg width="793.57972" height="828" xmlns="http://www.w3.org/2000/svg" data-name="Layer 1">
 <title>Memory storage</title>
 <defs>
  <linearGradient y2="0" x2="1" y1="0" x1="0" id="svg_46">
   <stop offset="0" stop-opacity="0.99609" stop-color="#42378f"/>
   <stop offset="1" stop-opacity="0.99609" stop-color="#f53844"/>
  </linearGradient>
  <linearGradient y2="0" x2="1" y1="0" x1="0" id="svg_50">
   <stop offset="0" stop-color="#575a89"/>
   <stop offset="1" stop-opacity="0.99609" stop-color="#f53844"/>
  </linearGradient>
  <linearGradient y2="0" x2="1" y1="0" x1="0" id="svg_55">
   <stop offset="0" stop-color="#6c63ff"/>
   <stop offset="1" stop-opacity="0.99609" stop-color="#f53844"/>
  </linearGradient>
  <linearGradient y2="0" x2="1" y1="0" x1="0" id="svg_61">
   <stop offset="0" stop-color="#6c63ff"/>
   <stop offset="1" stop-opacity="0.99609" stop-color="#f53844"/>
  </linearGradient>
  <linearGradient y2="0" x2="1" y1="0" x1="0" id="svg_68">
   <stop offset="0" stop-color="#6c63ff"/>
   <stop offset="1" stop-opacity="0.99609" stop-color="#f53844"/>
  </linearGradient>
  <linearGradient y2="0" x2="1" y1="0" x1="0" id="svg_76">
   <stop offset="0" stop-color="#6c63ff"/>
   <stop offset="1" stop-opacity="0.99609" stop-color="#f53844"/>
  </linearGradient>
  <linearGradient y2="0" x2="1" y1="0" x1="0" id="svg_85">
   <stop offset="0" stop-color="#6c63ff"/>
   <stop offset="1" stop-opacity="0.99609" stop-color="#f53844"/>
  </linearGradient>
  <linearGradient y2="0" x2="1" y1="0" x1="0" id="svg_95">
   <stop offset="0" stop-color="#6c63ff"/>
   <stop offset="1" stop-opacity="0.99609" stop-color="#f53844"/>
  </linearGradient>
 </defs>
 <g>
  <title>Layer 1</title>
  <ellipse id="svg_1" fill="#3f3d56" ry="52" rx="294" cy="776" cx="400.98059"/>
  <path id="svg_2" stroke-width="2" stroke-miterlimit="10" stroke="#3f3d56" fill="none" d="m155.96375,286.2052c0,-75.75611 111.08263,-137.16857 248.11,-137.16857s248.11,61.41246 248.11,137.16857"/>
  <path id="svg_3" fill="#e6e6e6" d="m482.08736,201.85074l-201.85075,0q-59.88475,-100.92537 0,-201.85074l201.85075,0q-83.73287,100.92537 0,201.85074z"/>
  <rect id="svg_4" fill="url(#svg_61)" height="14.41791" width="113.74129" y="24.02985" x="309.07244"/>
  <rect id="svg_5" fill="#fff" height="4.80597" width="150.58706" y="71.28856" x="272.22667"/>
  <rect id="svg_6" fill="#fff" height="4.80597" width="150.58706" y="96.1194" x="272.22667"/>
  <rect id="svg_7" fill="#fff" height="4.80597" width="150.58706" y="120.95025" x="272.22667"/>
  <path id="svg_8" fill="#3f3d56" d="m562.67658,648.65948c0,64.01613 40.16036,115.81717 89.79084,115.81717"/>
  <path id="svg_9" fill="url(#svg_95)" d="m652.46742,764.47665c0,-64.73541 44.81663,-117.11848 100.20137,-117.11848"/>
  <path id="svg_10" fill="url(#svg_85)" d="m595.2095,654.46265c0,60.80852 25.6095,110.014 57.25792,110.014"/>
  <path id="svg_11" fill="#3f3d56" d="m652.46742,764.47665c0,-82.71747 51.801,-149.65139 115.81717,-149.65139"/>
  <path id="svg_12" fill="#a8a8a8" d="m633.57774,765.29318s12.73382,-0.39219 16.57147,-3.12493s19.58782,-5.99579 20.53985,-1.61307s19.13657,21.79764 4.76015,21.9136s-33.4044,-2.23935 -37.23467,-4.57251s-4.6368,-12.60309 -4.6368,-12.60309z"/>
  <path id="svg_13" opacity="0.2" d="m675.70577,780.94314c-14.37642,0.116 -33.40439,-2.23933 -37.23466,-4.57251c-2.917,-1.77683 -4.07933,-8.15253 -4.46826,-11.094c-0.26934,0.01158 -0.4251,0.01657 -0.4251,0.01657s0.80653,10.26991 4.6368,12.60309s22.85824,4.6885 37.23466,4.5725c4.14991,-0.03347 5.58335,-1.50994 5.50465,-3.69673c-0.57652,1.32117 -2.15926,2.14618 -5.24809,2.17108z"/>
  <path id="svg_14" fill="#2f2e41" d="m357.8297,157.68167c1.169,0.536 2.57518,-0.263 3.26431,-1.34876c2.62406,-4.13443 -2.20717,-9.46554 -1.16106,-14.24935c0.8381,-3.83254 5.19311,-6.10727 6.08355,-9.928c0.8652,-3.71246 -1.8008,-7.897 0.00115,-11.25619c1.41173,-2.63171 4.93809,-3.32425 7.88874,-2.86321s5.75131,1.75814 8.73222,1.93988c3.97213,0.24218 7.75852,-1.5064 11.64257,-2.37277s8.62166,-0.52716 10.90658,2.731c2.93387,4.18352 -0.04223,10.00893 0.97933,15.01551c0.81119,3.97556 4.13936,7.26743 4.21087,11.32428c0.02541,1.44192 -3.76518,0.28033 -3.5637,1.70833s-1.59011,0.17065 -0.158,0.001a2.83656,2.83656 0 0 0 2.15525,-2.56349c0.17028,-1.18939 2.40545,-1.58586 2.37966,-2.78711c-0.06043,-2.81524 5.02939,-0.91705 5.86761,-3.60529a27.26083,27.26083 0 0 0 -1.11407,-19.01732c-1.1415,-2.561 -2.69605,-4.98476 -3.24677,-7.73406c-0.74772,-3.73277 0.42879,-7.73995 -0.80445,-11.34159c-1.662,-4.85372 -7.16143,-7.328 -12.26714,-7.83054s-10.29417,0.397 -15.37075,-0.344c-4.54775,-0.66384 -8.95048,-2.63481 -13.53754,-2.34924c-5.50405,0.34266 -10.29366,3.889 -14.109,7.87087s-7.05186,8.56161 -11.385,11.97279a22.32925,22.32925 0 0 0 -3.65052,3.14268c-2.207,2.6895 -2.43084,6.52085 -1.81689,9.94536s1.94987,6.69111 2.51394,10.12419c0.53009,3.2263 0.36656,6.52246 0.59488,9.784s0.90531,6.622 2.86966,9.23562a8.71633,8.71633 0 0 0 6.78255,3.54347c0.91842,0.02117 1.69412,-0.80408 2.62108,-0.58889c1.15871,0.26898 1.66252,1.36931 2.69094,1.84083z"/>
  <polygon id="svg_15" fill="#a0616a" points="318.546 394.707 321.95 415.619 328.759 406.378 324.868 392.275 318.546 394.707"/>
  <path id="svg_16" fill="#575a89" d="m322.92298,236.65061l-5.36054,14.12639s-5.33864,71.95337 -5.33864,77.303s3.89061,73.92158 5.34959,76.83954c0,0 6.32224,-9.2402 14.58979,-7.78122s4.86326,-24.31631 4.86326,-24.31631l7.78122,-63.70874l-1.459,-32.09753l-20.42568,-40.36513z"/>
  <path id="svg_17" opacity="0.1" d="m322.92298,236.65061l-5.36054,14.12639s-5.33864,71.95337 -5.33864,77.303s3.89061,73.92158 5.34959,76.83954c0,0 6.32224,-9.2402 14.58979,-7.78122s4.86326,-24.31631 4.86326,-24.31631l7.78122,-63.70874l-1.459,-32.09753l-20.42568,-40.36513z"/>
  <path id="svg_18" fill="#a0616a" d="m355.99316,158.83842s16.04877,40.8514 6.80857,48.63262s51.55058,-13.13081 51.55058,-13.13081l-1.459,-5.34959s-19.93937,-7.78122 -10.21285,-30.15222s-46.6873,0 -46.6873,0z"/>
  <path id="svg_19" opacity="0.1" d="m355.99316,158.83842s16.04877,40.8514 6.80857,48.63262s51.55058,-13.13081 51.55058,-13.13081l-1.459,-5.34959s-19.93937,-7.78122 -10.21285,-30.15222s-46.6873,0 -46.6873,0z"/>
  <path id="svg_20" fill="#575a89" d="m330.7042,704.49646s-6.80857,-1.94531 -10.69918,2.918s-18.48039,17.02142 -18.48039,17.02142s-28.20693,-2.918 -32.09754,11.1855s44.25569,14.10347 55.92752,10.69918s14.10346,0 14.10346,0s35.98814,2.918 35.98814,-2.918s-3.40428,-25.77529 -3.40428,-25.77529l-41.33773,-13.13081z"/>
  <path id="svg_21" fill="#575a89" d="m444.99086,737.08031l-6.32225,19.453s-18.96675,26.26169 -8.26753,31.61126s48.63262,10.69918 48.63262,-3.40429l0,-26.74794s-3.89061,-18.96672 -7.78122,-20.912s-26.26162,-0.00003 -26.26162,-0.00003z"/>
  <path id="svg_22" fill="#2f2e41" d="m337.59141,387.59059s-20.50434,17.81523 -20.018,20.24686s10.21283,158.54235 10.21283,158.54235l5.34962,101.15586s-6.80857,23.83 -3.40428,29.17958s-4.86327,6.80856 -4.86327,6.80856s35.01549,31.61121 49.60528,17.99407l13.61714,-176.53642l37.44713,128.39013s6.32224,68.08567 13.61713,68.08567s36.9608,1.459 36.47447,-2.43163s1.459,-33.55651 -1.94531,-51.06426s-26.26161,-156.11072 -26.26161,-156.11072s-1.96507,-118.82188 3.15124,-129.92824s-2.66492,-22.7782 -2.66492,-22.7782l-34.04283,-13.13081l-40.85141,4.86327l-35.42321,16.71393z"/>
  <circle id="svg_23" fill="#a0616a" r="34.04284" cy="141.33067" cx="378.8505"/>
  <path id="svg_24" fill="url(#svg_46)" d="m461.52596,214.76593a30.53711,30.53711 0 0 0 -21.39836,-19.453a188.628,188.628 0 0 1 -28.69324,-9.72652s-34.52917,16.53509 -41.33773,16.53509s-6.80857,-4.37694 -6.80857,-4.37694s-17.50775,18.4804 -26.74795,20.42571s-22.85733,24.80263 -17.99407,37.44712a70.56789,70.56789 0 0 0 14.10346,21.88461s-1.9453,68.08567 4.37694,80.73015c0,0 -15.56244,29.6659 -0.97265,31.61121s70.5173,-4.86326 80.24383,1.9453s27.72059,-1.459 30.15222,7.78122s7.78122,11.18551 7.78122,11.18551s8.26755,-13.13081 3.40429,-20.912s3.89061,-175.07746 3.89061,-175.07746z"/>
  <path id="svg_25" fill="#a0616a" d="m425.53786,397.6246l-7.78122,4.86326s8.26754,28.69325 11.67183,29.6659s11.41739,-24.53444 11.41739,-24.53444l-15.308,-9.99472z"/>
  <path id="svg_26" fill="#2f2e41" d="m351.99379,154.27739c1.169,0.536 2.57517,-0.263 3.2643,-1.34877c2.62407,-4.13442 -2.20717,-9.46554 -1.161,-14.24935c0.83809,-3.83254 5.19311,-6.10726 6.08354,-9.928c0.86521,-3.71245 -1.80079,-7.897 0.00116,-11.25618c1.41173,-2.63171 4.93809,-3.32426 7.88874,-2.86322s5.7513,1.75814 8.73222,1.93989c3.97212,0.24217 7.75851,-1.50641 11.64256,-2.37277s8.62167,-0.52717 10.90659,2.731c2.93387,4.18351 -0.04224,10.00892 0.97932,15.0155c0.81119,3.97557 10.0535,6.766 10.89171,4.07773a27.26075,27.26075 0 0 0 -1.11407,-19.01731c-1.14149,-2.561 -2.696,-4.98476 -3.24676,-7.73406c-0.74772,-3.73277 0.42878,-7.73995 -0.80445,-11.34159c-1.662,-4.85372 -7.16144,-7.328 -12.26714,-7.83054s-10.29418,0.397 -15.37075,-0.344c-4.54775,-0.66385 -8.95048,-2.63481 -13.53755,-2.34924c-5.50405,0.34266 -10.29365,3.889 -14.109,7.87086s-7.05186,8.56162 -11.385,11.97279a22.32931,22.32931 0 0 0 -3.65052,3.14269c-2.207,2.6895 -2.43085,6.52085 -1.81689,9.94536s1.94987,6.69111 2.51393,10.12419c0.5301,3.22629 0.36656,6.52245 0.59488,9.784s0.90532,6.622 2.86967,9.23561a8.71634,8.71634 0 0 0 6.78255,3.54348c0.91841,0.02117 1.69411,-0.80409 2.62107,-0.58889c1.15866,0.26897 1.66247,1.3693 2.69089,1.84082z"/>
  <path id="svg_27" opacity="0.1" d="m442.31607,223.27664l15.8056,-8.51071s38.41978,91.42934 29.17958,116.7183s-44.742,77.32587 -44.742,77.32587s-28.20692,-5.83591 -25.289,-11.67183s21.88468,-43.283 23.34366,-48.1463s11.1855,-36.47446 6.80857,-39.87875s-12.88762,-82.43229 -12.88762,-82.43229l7.78121,-3.40429z"/>
  <path id="svg_28" fill="url(#svg_50)" d="m442.07291,209.41634l19.453,5.34959s38.41977,91.42934 29.17957,116.7183s-44.742,77.32587 -44.742,77.32587s-28.20692,-5.83591 -25.289,-11.67183s21.88468,-43.283 23.34366,-48.1463s11.18551,-36.47446 6.80857,-39.87875s-25.289,-87.53872 -25.289,-87.53872l16.5352,-12.15816z"/>
  <path id="svg_29" stroke-width="2" stroke-miterlimit="10" stroke="#3f3d56" fill="none" d="m652.18371,286.2052c0,79.425 -111.08262,143.81163 -248.11,143.81163s-248.11,-64.38666 -248.11,-143.81163"/>
  <path id="svg_30" stroke-width="2" stroke-miterlimit="10" stroke="#3f3d56" fill="none" d="m607.0534,432.05793c-55.45907,29.91083 -127.8227,48.011 -206.98144,48.011c-75.89677,0 -145.54691,-16.63914 -200.04,-44.37389"/>
  <path id="svg_31" stroke-width="2" stroke-miterlimit="10" stroke="#3f3d56" fill="none" d="m527.97786,111.90572c105.54421,27.741 180.712,88.76157 187.70175,160.63026"/>
  <path id="svg_32" stroke-width="2" stroke-miterlimit="10" stroke="#3f3d56" fill="none" d="m99.16323,225.82294c17.78361,-32.68552 50.27112,-61.45009 92.83643,-83.54855"/>
  <path id="svg_33" fill="#f2f2f2" d="m317.35779,575.70682l201.85074,0q59.88471,-100.92537 0,-201.85074l-201.85074,0q83.73287,100.92537 0,201.85074z"/>
  <rect id="svg_34" fill="url(#svg_76)" height="14.41791" width="113.74129" y="412.30384" x="384.14592"/>
  <rect id="svg_35" fill="#fff" height="4.80597" width="150.58706" y="455.55757" x="375.33497"/>
  <rect id="svg_36" fill="#fff" height="4.80597" width="150.58706" y="480.38841" x="375.33497"/>
  <path id="svg_37" fill="#f2f2f2" d="m231.79309,438.6996l-201.85074,0q-59.88471,-100.92537 0,-201.85074l201.85074,0q-83.73285,100.92537 0,201.85074z"/>
  <rect id="svg_38" fill="url(#svg_68)" height="14.41791" width="113.74129" y="260.87871" x="52.37022"/>
  <rect id="svg_39" fill="#fff" height="4.80597" width="150.58706" y="300.92846" x="27.53937"/>
  <rect id="svg_40" fill="#fff" height="4.80597" width="150.58706" y="325.75931" x="27.53937"/>
  <rect id="svg_41" fill="#fff" height="4.80597" width="150.58706" y="350.59015" x="27.53937"/>
  <rect id="svg_42" fill="#fff" height="4.80597" width="150.58706" y="375.421" x="27.53937"/>
  <path id="svg_43" fill="#f2f2f2" d="m561.78663,345.72016l201.85074,0q59.88471,-100.92537 0,-201.85074l-201.85074,0q83.73285,100.92537 0,201.85074z"/>
  <rect id="svg_44" fill="url(#svg_55)" height="14.41791" width="113.74129" y="163.8943" x="626.17177"/>
  <rect id="svg_45" fill="#fff" height="4.80597" width="150.58706" y="203.94405" x="614.15684"/>
 </g>
</svg>